HIERARCHY
ROOT hip
{
  OFFSET 0.0 0.0 0.0
  CHANNELS 6 Xposition Yposition Zposition Zrotation Yrotation Xrotation
  JOINT torso
  {
    OFFSET 0.0 0.0 0.0
    CHANNELS 3 Zrotation Xrotation Yrotation
    JOINT neck
    {
      OFFSET -20.11218299999996 327.95800799999995 66.30578600000035
      CHANNELS 3 Zrotation Xrotation Yrotation
      JOINT head
      {
        OFFSET 18.28939800000012 288.83178699999996 217.81652800000006
        CHANNELS 3 Zrotation Xrotation Yrotation
        End Site
        {
          OFFSET 0.0 0.0 0.0
        }
      }
    }
    JOINT left_collar
    {
      OFFSET -20.11218299999996 327.95800799999995 66.30578600000035
      CHANNELS 3 Zrotation Xrotation Yrotation
      JOINT left_upper_arm
      {
        OFFSET -127.08163400000001 -16.17407199999991 15.44799799999987
        CHANNELS 3 Zrotation Xrotation Yrotation
        JOINT left_forearm
        {
          OFFSET -234.267792 45.78796399999999 109.31286600000021
          CHANNELS 3 Zrotation Xrotation Yrotation
          JOINT left_hand
          {
            OFFSET -259.114014 -33.25433399999997 16.18847699999992
            CHANNELS 3 Zrotation Xrotation Yrotation
            End Site
            {
              OFFSET 0.0 0.0 0.0
            }
          }
        }
      }
    }
    JOINT right_collar
    {
      OFFSET -20.11218299999996 327.95800799999995 66.30578600000035
      CHANNELS 3 Zrotation Xrotation Yrotation
      JOINT right_upper_arm
      {
        OFFSET 164.513184 1.5733030000000099 4.892333999999892
        CHANNELS 3 Zrotation Xrotation Yrotation
        JOINT right_forearm
        {
          OFFSET 260.742027 48.718444999999974 144.35229500000014
          CHANNELS 3 Zrotation Xrotation Yrotation
          JOINT right_hand
          {
            OFFSET 287.85150899999996 -44.57171600000015 13.96813899999961
            CHANNELS 3 Zrotation Xrotation Yrotation
            End Site
            {
              OFFSET 0.0 0.0 0.0
            }
          }
        }
      }
    }
  }
}
MOTION
Frames: 14
Frame Time: 0.01
-283.17578616888665 258.2428699062213 1398.278846915265 0.8011720229358655 -0.6963868648425282 -1.7476746909695644 -0.22194373304341405 2.1791120123067538 0.17495406469587102 2.047705505083963 -13.000896818747124 -0.8747774985645447 0.0 0.0 0.0 2.6386472873895577 1.286329939609486 -6.335032058334457 73.94387050987223 26.14966907654691 14.526770220816699 0.4215877612038657 1.1891109593427136 -8.743733621311645 0.0 0.0 0.0 -1.3121073491260613 0.04167337616136213 1.3993742763899204 -68.92570463195865 34.821234673218434 -4.452681108069114 -6.120097408850437 0.26137684097845776 -0.18256978866561752 0.0 0.0 0.0
-283.2703524500019 258.2182865281376 1398.634796090981 0.8226963060873693 -0.7715191758803526 -1.7396644454901595 -0.2417699544979081 2.182349646820314 0.17879063124379757 2.033442467770742 -12.987450529941883 -0.864033301928905 0.0 0.0 0.0 2.672294048840431 1.29389742533597 -6.3448175832342315 73.90827691830971 26.198447903343954 14.410803890887047 0.3884130615853057 1.1823268619933462 -8.727988964874115 0.0 0.0 0.0 -1.3658152791487927 0.043844599864272846 1.3645233224016735 -68.7679903298027 34.8711698596772 -4.201632981245731 -6.117259598531409 0.2639858722476723 -0.16950657035206315 0.0 0.0 0.0
-283.36333929902554 258.1890960649987 1398.9992123447191 0.8433034245803706 -0.8425669409135597 -1.7307046951143532 -0.26017943012166117 2.17988790448898 0.18202600622922074 2.018490826755734 -12.973940360142745 -0.8527436957264017 0.0 0.0 0.0 2.704804320037623 1.3013139061107386 -6.35490997244122 73.87271736112865 26.248202813212043 14.292905973764515 0.354864458064924 1.1755410685842393 -8.712551529407575 0.0 0.0 0.0 -1.419787771303334 0.045994397420850486 1.3297961494337514 -68.61005081518746 34.921375686882726 -3.9488264927975454 -6.113035929356699 0.26672461582207 -0.15550583487026998 0.0 0.0 0.0
-283.45395307484006 258.1529814014898 1399.3768375897232 0.8629902120010154 -0.9090370939423803 -1.720828564541325 -0.27684907313644763 2.170423474776675 0.18452589279722956 2.0025775277337883 -12.96041022620694 -0.8406887039060803 0.0 0.0 0.0 2.7358315084000373 1.3084731670362182 -6.365027165882166 73.83688045263517 26.29959007524541 14.17162561878485 0.32089929121521055 1.1687719898342936 -8.697605421179071 0.0 0.0 0.0 -1.4738721258480447 0.04811660210579696 1.2952427550210994 -68.45297130503816 34.97243238624711 -3.6942582181697223 -6.106553296932935 0.26961618944059657 -0.14025415333596689 0.0 0.0 0.0
-283.54146244520047 258.10759426225405 1399.7726325300666 0.8817598086062326 -0.9704776139318154 -1.7100977028322921 -0.29145964002013175 2.152669171428717 0.1861577845645911 1.9854380952535526 -12.94695607193605 -0.8276527291315486 0.0 0.0 0.0 2.765042830049621 1.3152815598070364 -6.374955302024768 73.8004168445594 26.353220726607944 14.045566079097922 0.28649181545988517 1.1620472802995683 -8.683388047772846 0.0 0.0 0.0 -1.5279490351432576 0.05020652416431425 1.260869802466448 -68.29773700464932 35.0249643037693 -3.437757013095981 -6.096949655009183 0.2726787396467948 -0.12346109717727201 0.0 0.0 0.0
-283.62522219526926 258.0506215727855 1400.1916112204792 0.8996194807903493 -1.0264902741271362 -1.6986087561413385 -0.3037037530336809 2.1253983672301295 0.18679467304164812 1.966827468454275 -12.933732229241185 -0.8134328733864098 0.0 0.0 0.0 2.792126715236043 1.3216612030860977 -6.384559810393186 73.7629508735187 26.409629747199716 13.913450320137505 0.25164029769187757 1.1554051325250525 -8.670193164525001 0.0 0.0 0.0 -1.5819332434643816 0.05226082968682415 1.2266421771253837 -68.14520936009369 35.079617449048364 -3.1789993177264466 -6.083402052894407 0.2759239173473177 -0.1048722190572717 0.0 0.0 0.0
-283.7046973670807 257.9798504300381 1400.6386767638976 0.9165795119148994 -1.0767477896077584 -1.6865005845078875 -0.3132949330001318 2.0874931365013616 0.18631909478941236 1.9465300247834267 -12.92095466185547 -0.7978467503551073 0.0 0.0 0.0 2.8168002459289236 1.3275522661883776 -6.393790474609885 73.72409276525357 26.469249631176538 13.774178874157322 0.21637293383073844 1.1488950082890719 -8.658371013461734 0.0 0.0 0.0 -1.6357721408378054 0.054277355336505566 1.192487644084099 -67.9961080776822 35.13703652484258 -2.917531115028902 -6.0651525119615854 0.27935561323884456 -0.08428035785922437 0.0 0.0 0.0
-283.77948729951913 257.8932292340923 1401.1184646369811 0.9326532417157193 -1.121015175222991 -1.6739620456404656 -0.3199773985934797 2.037994664619044 0.18462743002954568 1.9243683720922657 -12.908900716115372 -0.780739473455362 0.0 0.0 0.0 2.8388164367265345 1.3329141910497895 -6.4026799018064215 73.68345107183447 26.53238967481364 13.626877246639824 0.18075222235728153 1.1425777286826513 -8.648325259570477 0.0 0.0 0.0 -1.6894423092031743 0.05625487551909184 1.158304731868948 -67.85099939282358 35.19784229271277 -2.652795645951183 -6.041530704530896 0.2829690453194359 -0.0615347117727951 0.0 0.0 0.0
-283.84934909566664 257.78892264151347 1401.635199693089 0.947858202926422 -1.1591746767597433 -1.6612400844532145 -0.323536279847403 1.9761541410003503 0.1816343378114487 1.900210556309324 -12.897905211580648 -0.7619895481411467 0.0 0.0 0.0 2.85797117794791 1.3377257737287207 -6.411335230315168 73.6406450301542 26.599221997277905 13.4709307764607 0.14487750635767796 1.1365248804666308 -8.640506601532026 0.0 0.0 0.0 -1.742944178773429 0.058192842433045074 1.1239737655512783 -67.71029069897061 35.26261009489565 -2.3841656212845366 -6.011972589349882 0.286750274924634 -0.036547240523734946 0.0 0.0 0.0
-283.9142200036743 257.66535819666666 1402.1925721952375 0.9622181805358645 -1.1912532067112156 -1.6486477832748594 -0.3238077956818151 1.9014820728690307 0.17727718783925783 1.8739754097349186 -12.888352914899986 -0.7415134506471434 0.0 0.0 0.0 2.8741096789388436 1.341984099053911 -6.419923309449793 73.59531650799974 26.669774961073035 13.306005506245219 0.10888549111924432 1.1308175363091175 -8.635403124044732 0.0 0.0 0.0 -1.7962950685061447 0.0600911213985915 1.0893707577460332 -67.5742313379532 35.33185029112154 -2.1109784117602732 -5.976034370393463 0.2906762039765883 -0.009296096158581957 0.0 0.0 0.0
-283.97423816396184 257.52126279164924 1402.7936372716285 0.9757659125923885 -1.2174508227812466 -1.6365719560018148 -0.32068887209505026 1.813793764850337 0.17152032702578493 1.8456358524723022 -12.880667649326654 -0.7192687365148143 0.0 0.0 0.0 2.887132277059915 1.345702397430696 -6.428649983424679 73.54714115684232 26.743934261275466 13.13205433561949 0.07294866054803822 1.1255443303266406 -8.633527667311265 0.0 0.0 0.0 -1.8495209749300074 0.061949744166381555 1.0543836597594145 -67.44291909507224 35.40599127715108 -1.8325725520513774 -5.933401383678777 0.2947150763409709 0.020174064136111433 0.0 0.0 0.0
-284.0297611527992 257.3556875082611 1403.440740968761 0.9885460695861791 -1.2381684375101627 -1.6254798197522922 -0.3141456399840229 1.7132486103871711 0.16435899997577513 1.8152200563715464 -12.87529849761004 -0.6952555906415913 0.0 0.0 0.0 2.8969994976331246 1.34890696550412 -6.437734496341833 73.49583835027002 26.821451512127723 12.949308518391858 0.037271649553989795 1.120798975840352 -8.635402707774105 0.0 0.0 0.0 -1.902647535435376 0.063768701689302 1.018930298276757 -67.3163117239237 35.48536562517258 -1.5483238645371944 -5.883891781159287 0.29882747289200684 0.05175486558954054 0.0 0.0 0.0
-284.08138173866024 257.1680199029086 1404.1354746583665 1.0006180968443454 -1.2540326459078845 -1.6159242514520396 -0.3042202514132953 1.600380828644469 0.1558227257357054 1.7828104839574563 -12.87270374752947 -0.6695168039348444 0.0 0.0 0.0 2.9037362412382905 1.351633355132262 -6.447380394652635 73.44117949337686 26.901959695886553 12.758255416225037 0.002085774395893252 1.116677356152238 -8.641543456470485 0.0 0.0 0.0 -1.9556906251821782 0.06554779518762148 0.9829771863459456 -67.19424264593091 35.57019972911178 -1.2576795898490944 -5.8274551534286765 0.30296775614082916 0.08527992211292205 0.0 0.0 0.0
-284.12994025959756 256.9579833821389 1404.8786580688468 1.012058482217294 -1.2659153332474156 -1.6085471263277549 -0.29103548298275855 1.4761193539310253 0.1459779169787912 1.748540917068435 -12.87333338503889 -0.6421362351776287 0.0 0.0 0.0 2.9074349262208017 1.3539220820638111 -6.457744622251812 73.38299436803216 26.984994390682697 12.55960428635403 -0.03235793585611501 1.113274356971808 -8.652440067315046 0.0 0.0 0.0 -2.008647057954372 0.06728656040639619 0.9465582984412972 -67.07643983254742 35.66060716618831 -0.9601890785145992 -5.764166477718417 0.30708588957508315 0.12053313133087551 0.0 0.0 0.0
